# xmcd
#
# Track frame offsets:
#	150
#	15616
#	32236
#	46987
#	63931
#	79137
#	98882
#	117520
#	135502
#	151495
#	168492
#
# Disc length: 2459 seconds
#
# Revision: 1
# Processed by: cddbd v1.5.2PL0 Copyright (c) Steve Scherf et al.
# Submitted via: audiograbber 1.83.01
#
DISCID=8b09990b
DTITLE=Charlie Worsham - Rubberband
DYEAR=2013
DGENRE=Country
TTITLE0=Could It Be
TTITLE1=Want Me Too
TTITLE2=Young To See
TTITLE3=Trouble Is
TTITLE4=Rubberband
TTITLE5=How I Learned To Pray
TTITLE6=Tools Of The Trade (Feat. Marty Stuart and Vince Gill)
TTITLE7=Mississippi In July
TTITLE8=Break What's Broken
TTITLE9=Someone Like Me
TTITLE10=Love Don't Die Easy
EXTD=
EXTT0=
EXTT1=
EXTT2=
EXTT3=
EXTT4=
EXTT5=
EXTT6=
EXTT7=
EXTT8=
EXTT9=
EXTT10=
PLAYORDER=
